M48
; DRILL file {KiCad (6.0.7-1)-1} date 2022 December 15, Thursday 20:56:17
; FORMAT={-:-/ absolute / inch / decimal}
; #@! TF.CreationDate,2022-12-15T20:56:17+05:30
; #@! TF.GenerationSoftware,Kicad,Pcbnew,(6.0.7-1)-1
; #@! TF.FileFunction,Plated,1,2,PTH
FMAT,2
INCH
; #@! TA.AperFunction,Plated,PTH,ViaDrill
T1C0.0157
; #@! TA.AperFunction,Plated,PTH,ComponentDrill
T2C0.0276
; #@! TA.AperFunction,Plated,PTH,ComponentDrill
T3C0.0300
; #@! TA.AperFunction,Plated,PTH,ComponentDrill
T4C0.0315
; #@! TA.AperFunction,Plated,PTH,ComponentDrill
T5C0.0374
; #@! TA.AperFunction,Plated,PTH,ComponentDrill
T6C0.0394
; #@! TA.AperFunction,Plated,PTH,ComponentDrill
T7C0.1260
%
G90
G05
T1
X1.266Y-7.246
X1.462Y-7.134
X1.464Y-7.258
X1.634Y-7.27
X1.6532Y-5.9102
X1.74Y-4.21
X1.752Y-3.742
X1.77Y-5.24
X1.772Y-3.862
X1.78Y-5.45
X1.78Y-5.59
X1.78Y-5.67
X1.78Y-5.75
X1.812Y-3.984
X1.84Y-4.14
X1.9Y-5.75
X1.9347Y-5.441
X1.988Y-7.194
X2.0589Y-8.2565
X2.0871Y-8.0654
X2.1384Y-8.1657
X2.1462Y-8.2417
X2.1504Y-7.4428
X2.1672Y-3.562
X2.272Y-4.574
X2.34Y-3.79
X2.35Y-6.394
X2.3882Y-4.3887
X2.42Y-4.15
X2.436Y-4.584
X2.436Y-6.508
X2.44Y-5.45
X2.442Y-5.17
X2.46Y-7.34
X2.496Y-8.0449
X2.5249Y-6.9762
X2.528Y-7.04
X2.5548Y-5.2772
X2.558Y-6.404
X2.632Y-4.612
X2.654Y-6.772
X2.6841Y-6.6355
X2.756Y-6.5251
X2.764Y-6.922
X2.776Y-5.992
X2.794Y-6.71
X2.934Y-3.888
X3.012Y-6.73
X3.0259Y-6.9775
X3.032Y-6.888
X3.1048Y-7.3124
X3.22Y-3.98
X3.22Y-6.25
X3.24Y-4.93
X3.25Y-6.004
X3.452Y-7.23
X3.49Y-7.06
X3.5436Y-4.2787
X3.62Y-3.89
X3.62Y-6.72
X3.6375Y-6.5051
X3.6577Y-4.5883
X3.66Y-3.26
X3.6758Y-7.1616
X3.75Y-7.236
X3.7814Y-6.2664
X3.802Y-8.246
X3.826Y-8.04
X3.8315Y-7.2694
X3.8333Y-4.7579
X3.8334Y-4.7027
X3.8423Y-6.1741
X3.846Y-5.022
X3.85Y-6.71
X3.86Y-5.158
X3.86Y-7.08
X3.876Y-5.252
X3.926Y-3.348
X3.93Y-4.928
X3.93Y-5.19
X4.014Y-4.428
X4.028Y-5.954
X4.0346Y-4.6608
X4.044Y-3.238
X4.05Y-6.71
X4.05Y-7.07
X4.087Y-6.0863
X4.1002Y-4.4924
X4.114Y-4.36
X4.12Y-5.28
X4.18Y-3.81
X4.187Y-5.1687
X4.214Y-7.216
X4.242Y-4.314
X4.248Y-5.062
X4.25Y-4.524
X4.258Y-5.97
X4.2984Y-5.1281
X4.3Y-5.6365
X4.306Y-7.082
X4.312Y-5.404
X4.312Y-5.886
X4.324Y-5.23
X4.37Y-6.706
X4.442Y-5.414
X4.442Y-5.618
X4.452Y-5.218
X4.47Y-5.894
X4.474Y-7.22
X4.482Y-5.05
X4.484Y-4.414
X4.526Y-7.672
X4.562Y-8.102
X4.584Y-7.082
X4.6Y-7.862
X4.656Y-3.876
X4.714Y-5.874
X4.724Y-5.748
X4.8Y-3.27
X4.8Y-6.31
X4.852Y-4.136
X4.906Y-7.222
X4.916Y-7.98
X4.9211Y-6.271
X4.98Y-7.562
X4.989Y-6.5104
X4.99Y-8.368
X5.018Y-3.858
X5.038Y-8.136
X5.048Y-7.21
X5.0687Y-4.0651
X5.11Y-4.13
X5.1201Y-4.5025
X5.1239Y-4.2331
X5.1262Y-4.314
X5.1362Y-4.1896
X5.1473Y-7.6868
X5.1833Y-7.4983
X5.196Y-7.732
X5.2012Y-4.3703
X5.23Y-4.718
X5.2324Y-2.433
X5.24Y-3.6
X5.31Y-4.01
X5.336Y-4.664
X5.336Y-7.872
X5.342Y-4.914
X5.4352Y-6.271
X5.4383Y-6.801
X5.452Y-7.946
X5.58Y-2.95
X5.58Y-7.198
X5.598Y-4.838
X5.6046Y-5.2816
X5.63Y-3.66
X5.634Y-4.904
X5.637Y-5.1654
X5.64Y-4.76
X5.708Y-4.958
X5.788Y-8.102
X5.8101Y-5.2392
X5.8318Y-3.9395
X5.85Y-5.886
X5.8637Y-5.6199
X5.87Y-6.89
X5.875Y-4.5217
X5.88Y-7.17
X5.882Y-5.792
X5.884Y-5.04
X5.91Y-3.43
X5.93Y-5.688
X5.938Y-5.492
X5.952Y-5.586
X5.958Y-6.666
X5.9942Y-4.763
X6.0023Y-7.4348
X6.0707Y-7.9967
X6.148Y-4.628
X6.176Y-8.008
X6.214Y-8.374
X6.2277Y-6.4378
X6.26Y-8.09
X6.2762Y-6.2653
X6.28Y-6.814
X6.282Y-7.866
X6.29Y-6.5595
X6.296Y-7.184
X6.3049Y-7.4388
X6.3116Y-5.2634
X6.3285Y-6.5906
X6.366Y-7.958
X6.414Y-5.738
X6.414Y-7.792
X6.418Y-5.444
X6.42Y-5.576
X6.44Y-4.3
X6.44Y-6.87
X6.44Y-8.32
X6.4484Y-7.6416
X6.5656Y-8.2537
X6.5722Y-7.6926
X6.5795Y-7.0427
X6.6034Y-3.3988
X6.63Y-6.74
X6.6488Y-4.0679
X6.706Y-5.43
X6.706Y-5.734
X6.7135Y-4.0873
X6.72Y-5.594
X6.722Y-5.244
X6.722Y-5.346
X6.74Y-4.27
X6.7977Y-3.9182
X6.916Y-5.576
X6.9233Y-4.8703
X6.95Y-4.18
X6.9632Y-5.1897
X6.9733Y-4.315
X6.988Y-8.004
X7.06Y-6.89
X7.072Y-4.014
X7.0838Y-2.2918
X7.09Y-4.58
X7.17Y-5.59
X7.176Y-5.222
X7.22Y-5.728
X7.222Y-7.8
X7.2362Y-5.0664
X7.242Y-4.242
X7.33Y-7.308
X7.35Y-5.23
X7.4Y-4.58
X7.4574Y-6.9922
X7.5321Y-6.9321
X7.58Y-5.14
X7.59Y-6.41
X7.5928Y-7.0017
X7.61Y-7.33
X7.61Y-7.8
X7.63Y-7.98
X7.6362Y-4.4382
X7.68Y-4.03
X7.698Y-3.868
X7.7091Y-6.8083
X7.7327Y-6.8962
X7.7373Y-4.1008
X7.75Y-6.44
X7.7692Y-7.1616
X7.816Y-3.838
X7.82Y-4.218
X7.85Y-5.74
X7.908Y-8.338
X7.9778Y-5.3746
X8.01Y-6.35
X8.02Y-5.74
X8.0457Y-5.2555
X8.0602Y-6.1968
X8.09Y-5.83
X8.0942Y-5.1281
X8.1056Y-5.3683
X8.15Y-5.98
X8.184Y-8.358
X8.19Y-5.61
X8.19Y-5.74
X8.202Y-4.298
X8.204Y-3.96
X8.3Y-5.69
X8.3078Y-4.5353
X8.34Y-7.79
X8.3514Y-6.4064
X8.3527Y-5.5633
X8.41Y-5.79
X8.4155Y-6.9876
X8.43Y-5.17
X8.45Y-7.13
X8.464Y-4.19
X8.464Y-8.364
X8.4788Y-6.0288
X8.514Y-7.478
X8.55Y-5.96
X8.576Y-7.72
X8.63Y-3.868
X8.692Y-8.372
X8.794Y-8.51
X8.8012Y-3.8797
X8.848Y-7.954
X8.862Y-8.286
X8.928Y-8.348
X9.01Y-7.21
X9.236Y-8.464
X9.536Y-4.094
X9.546Y-3.63
X9.57Y-5.91
X9.7Y-7.88
X9.89Y-6.27
T2
X2.3393Y-3.6829
X2.3393Y-4.9729
X2.3393Y-6.2829
X2.34Y-4.03
X2.35Y-5.24
X2.35Y-6.57
X2.6393Y-3.6829
X2.6393Y-4.9729
X2.6393Y-6.2829
X2.64Y-4.03
X2.65Y-5.24
X2.65Y-6.57
X3.18Y-7.32
X3.18Y-7.62
X3.18Y-7.73
X3.18Y-8.03
X3.18Y-8.12
X3.18Y-8.42
X3.31Y-7.32
X3.31Y-7.62
X3.31Y-7.73
X3.31Y-8.03
X3.31Y-8.12
X3.31Y-8.42
X3.745Y-4.575
X3.745Y-4.875
X3.75Y-5.05
X3.75Y-5.35
X4.3208Y-7.3193
X4.3208Y-7.6193
X4.3208Y-7.7193
X4.3208Y-8.0193
X4.3208Y-8.1093
X4.3208Y-8.4093
X4.4608Y-7.3193
X4.4608Y-7.6193
X4.4608Y-7.7193
X4.4608Y-8.0193
X4.4608Y-8.1093
X4.4608Y-8.4093
X4.73Y-5.03
X4.73Y-5.33
X5.51Y-7.33
X5.51Y-7.63
X5.51Y-7.73
X5.51Y-8.03
X5.51Y-8.12
X5.51Y-8.42
X5.65Y-7.33
X5.65Y-7.63
X5.65Y-7.73
X5.65Y-8.03
X5.65Y-8.12
X5.65Y-8.42
X6.69Y-4.99
X6.99Y-4.99
X7.4742Y-1.8507
X7.4742Y-2.1507
X7.4742Y-2.2407
X7.4742Y-2.5407
X7.4742Y-2.6307
X7.4742Y-2.9307
X7.6242Y-1.8507
X7.6242Y-2.1507
X7.6242Y-2.2407
X7.6242Y-2.5407
X7.6242Y-2.6307
X7.6242Y-2.9307
X8.615Y-1.85
X8.615Y-2.15
X8.615Y-2.24
X8.615Y-2.54
X8.615Y-2.63
X8.615Y-2.93
X8.685Y-4.885
X8.685Y-5.295
X8.685Y-5.705
X8.695Y-3.645
X8.695Y-4.065
X8.695Y-4.485
X8.765Y-1.85
X8.765Y-2.15
X8.765Y-2.24
X8.765Y-2.54
X8.765Y-2.63
X8.765Y-2.93
X8.985Y-4.885
X8.985Y-5.295
X8.985Y-5.705
X8.995Y-3.645
X8.995Y-4.065
X8.995Y-4.485
X9.755Y-3.465
X9.755Y-3.975
X9.755Y-4.465
X9.755Y-4.975
X9.755Y-5.475
X9.755Y-5.925
X9.8142Y-1.8607
X9.8142Y-2.1607
X9.8142Y-2.2507
X9.8142Y-2.5507
X9.8142Y-2.6407
X9.8142Y-2.9407
X9.9642Y-1.8607
X9.9642Y-2.1607
X9.9642Y-2.2507
X9.9642Y-2.5507
X9.9642Y-2.6407
X9.9642Y-2.9407
X10.055Y-3.465
X10.055Y-3.975
X10.055Y-4.465
X10.055Y-4.975
X10.055Y-5.475
X10.055Y-5.925
T3
X2.93Y-4.51
X2.93Y-4.61
X2.93Y-4.71
X2.93Y-4.81
X2.93Y-4.91
X2.93Y-5.01
X2.93Y-5.11
X2.93Y-5.21
X2.93Y-5.31
X2.93Y-5.41
X2.93Y-5.51
X2.93Y-5.61
X2.93Y-5.71
X2.93Y-5.81
X2.93Y-5.91
X2.93Y-6.01
X3.51Y-3.56
X3.53Y-4.91
X3.53Y-5.01
X3.53Y-5.11
X3.53Y-5.21
X3.53Y-5.31
X3.53Y-5.41
X3.53Y-5.51
X3.53Y-5.61
X3.55Y-6.9
X3.61Y-3.56
X3.65Y-6.9
X3.71Y-3.56
X3.75Y-6.9
X3.81Y-3.56
X3.85Y-6.9
X3.91Y-3.56
X3.91Y-4.16
X3.95Y-6.3
X3.95Y-6.9
X3.99Y-4.77
X3.99Y-4.87
X3.99Y-4.97
X3.99Y-5.07
X3.99Y-5.17
X3.99Y-5.27
X3.99Y-5.37
X3.99Y-5.47
X3.99Y-5.57
X3.99Y-5.67
X4.01Y-3.56
X4.01Y-4.16
X4.05Y-6.3
X4.05Y-6.9
X4.11Y-3.56
X4.11Y-4.16
X4.15Y-6.3
X4.15Y-6.9
X4.21Y-3.56
X4.21Y-4.16
X4.25Y-6.3
X4.25Y-6.9
X4.31Y-3.56
X4.31Y-4.16
X4.35Y-6.3
X4.35Y-6.9
X4.41Y-3.56
X4.41Y-4.16
X4.45Y-6.3
X4.45Y-6.9
X4.51Y-3.56
X4.51Y-4.16
X4.55Y-6.3
X4.55Y-6.9
X4.61Y-3.56
X4.61Y-4.16
X4.65Y-6.3
X4.65Y-6.9
X4.71Y-3.56
X4.75Y-6.9
X4.81Y-3.56
X4.85Y-6.9
X4.91Y-3.56
X4.92Y-4.85
X4.92Y-4.95
X4.92Y-5.05
X4.92Y-5.15
X4.92Y-5.25
X4.92Y-5.35
X4.92Y-5.45
X4.92Y-5.55
X4.95Y-6.9
X5.01Y-3.56
X5.05Y-6.9
X5.4Y-2.13
X5.4Y-2.23
X5.4Y-2.33
X5.4Y-2.43
X5.4Y-2.53
X5.4Y-2.63
X5.4Y-2.73
X5.4Y-2.83
X5.4Y-2.93
X5.4Y-3.03
X5.4Y-3.13
X5.4Y-3.23
X5.4Y-3.33
X5.4Y-3.43
X5.4Y-3.53
X5.52Y-4.45
X5.52Y-4.55
X5.52Y-4.65
X5.52Y-4.75
X5.52Y-4.85
X5.52Y-4.95
X5.52Y-5.05
X5.52Y-5.15
X5.52Y-5.25
X5.52Y-5.35
X5.52Y-5.45
X5.52Y-5.55
X5.52Y-5.65
X5.52Y-5.75
X5.52Y-5.85
X5.52Y-5.95
X6.5Y-2.13
X6.5Y-2.23
X6.5Y-2.33
X6.5Y-2.43
X6.5Y-2.53
X6.5Y-2.63
X6.5Y-2.73
X6.5Y-2.83
X6.5Y-2.93
X6.5Y-3.03
X6.5Y-3.13
X6.5Y-3.23
X6.5Y-3.33
X6.5Y-3.43
X6.5Y-3.53
X6.57Y-5.135
X6.57Y-5.235
X6.57Y-5.335
X6.57Y-5.435
X6.57Y-5.535
X6.57Y-5.635
X6.57Y-5.735
X6.57Y-5.835
X6.57Y-5.935
X6.57Y-6.035
X7.07Y-5.135
X7.07Y-5.235
X7.07Y-5.335
X7.07Y-5.435
X7.07Y-5.535
X7.07Y-5.635
X7.07Y-5.735
X7.07Y-5.835
X7.07Y-5.935
X7.07Y-6.035
T4
X1.7451Y-8.3834
X1.7551Y-7.9634
X1.7651Y-7.5584
X1.8435Y-8.3834
X1.8535Y-7.9634
X1.8635Y-7.5584
X2.41Y-6.1229
X2.4409Y-3.5329
X2.4409Y-4.8329
X2.4416Y-3.89
X2.4416Y-5.09
X2.4416Y-6.41
X2.6069Y-6.1229
X2.6378Y-3.5329
X2.6378Y-4.8329
X2.6384Y-3.89
X2.6384Y-5.09
X2.6384Y-6.41
X7.8121Y-6.78
X7.8121Y-6.88
X7.8121Y-7.28
X7.8121Y-7.38
X7.8121Y-7.48
X7.8121Y-7.78
X7.8121Y-7.88
X7.8121Y-7.98
X7.8121Y-8.08
X7.8121Y-8.18
X7.9121Y-6.78
X7.9121Y-6.88
X7.9121Y-7.28
X7.9121Y-7.38
X7.9121Y-7.48
X7.9121Y-7.78
X7.9121Y-7.88
X7.9121Y-7.98
X7.9121Y-8.08
X7.9121Y-8.18
X8.0121Y-6.78
X8.0121Y-6.88
X8.0121Y-8.08
X8.0121Y-8.18
X8.1121Y-6.78
X8.1121Y-6.88
X8.1121Y-8.08
X8.1121Y-8.18
X8.2121Y-6.78
X8.2121Y-6.88
X8.2121Y-8.08
X8.2121Y-8.18
X8.3121Y-6.78
X8.3121Y-6.88
X8.3121Y-8.08
X8.3121Y-8.18
X8.4121Y-6.78
X8.4121Y-6.88
X8.4121Y-8.08
X8.4121Y-8.18
X8.5121Y-6.78
X8.5121Y-6.88
X8.5121Y-8.08
X8.5121Y-8.18
X8.6121Y-6.78
X8.6121Y-6.88
X8.6121Y-8.08
X8.6121Y-8.18
X8.6866Y-5.185
X8.6866Y-5.585
X8.6881Y-4.755
X8.6966Y-3.485
X8.6966Y-3.935
X8.6966Y-4.355
X8.7121Y-6.78
X8.7121Y-6.88
X8.7121Y-8.08
X8.7121Y-8.18
X8.8121Y-6.78
X8.8121Y-6.88
X8.8121Y-8.08
X8.8121Y-8.18
X8.8834Y-5.185
X8.8834Y-5.585
X8.885Y-4.755
X8.8934Y-3.485
X8.8934Y-3.935
X8.8934Y-4.355
X8.9121Y-6.78
X8.9121Y-6.88
X8.9121Y-8.08
X8.9121Y-8.18
X9.0121Y-6.78
X9.0121Y-6.88
X9.0121Y-8.08
X9.0121Y-8.18
X9.1121Y-6.78
X9.1121Y-6.88
X9.1121Y-8.08
X9.1121Y-8.18
X9.2121Y-6.78
X9.2121Y-6.88
X9.2121Y-8.08
X9.2121Y-8.18
X9.3121Y-6.78
X9.3121Y-6.88
X9.3121Y-8.08
X9.3121Y-8.18
X9.4121Y-6.78
X9.4121Y-6.88
X9.5121Y-6.78
X9.5121Y-6.88
X9.6121Y-6.78
X9.6121Y-6.88
X9.7121Y-6.78
X9.7121Y-6.88
X9.8121Y-6.78
X9.8121Y-6.88
T5
X1.4593Y-3.5171
X1.4593Y-3.6155
X1.4593Y-3.7139
X1.4593Y-3.8124
X1.4593Y-3.9108
X1.4593Y-4.0092
X1.4593Y-4.1076
X1.4593Y-4.2061
X1.4593Y-4.3045
X1.4593Y-4.4029
X1.4593Y-4.7871
X1.4593Y-4.8855
X1.4593Y-4.9839
X1.4593Y-5.0824
X1.4593Y-5.1808
X1.4593Y-5.2792
X1.4593Y-5.3776
X1.4593Y-5.4761
X1.4593Y-5.5745
X1.4593Y-5.6729
X1.4593Y-6.0771
X1.4593Y-6.1755
X1.4593Y-6.2739
X1.4593Y-6.3724
X1.4593Y-6.4708
X1.4593Y-6.5692
X1.4593Y-6.6676
X1.4593Y-6.7661
X1.4593Y-6.8645
X1.4593Y-6.9629
X2.0587Y-3.5142
X2.0587Y-3.6126
X2.0587Y-3.711
X2.0587Y-3.8094
X2.0587Y-3.9079
X2.0587Y-4.0063
X2.0587Y-4.1047
X2.0587Y-4.2031
X2.0587Y-4.3016
X2.0587Y-4.4
X2.0587Y-4.78
X2.0587Y-4.8784
X2.0587Y-4.9769
X2.0587Y-5.0753
X2.0587Y-5.1737
X2.0587Y-5.2721
X2.0587Y-5.3706
X2.0587Y-5.469
X2.0587Y-5.5674
X2.0587Y-5.6658
X2.0593Y-6.0871
X2.0593Y-6.1855
X2.0593Y-6.2839
X2.0593Y-6.3824
X2.0593Y-6.4808
X2.0593Y-6.5792
X2.0593Y-6.6776
X2.0593Y-6.7761
X2.0593Y-6.8745
X2.0593Y-6.9729
X2.1547Y-8.34
X2.2531Y-8.34
X2.3516Y-8.34
X2.45Y-8.34
X6.11Y-5.0992
X6.11Y-5.1976
X6.11Y-5.296
X6.11Y-5.3944
X6.11Y-5.4929
X6.11Y-5.5913
X6.11Y-5.6897
X6.11Y-5.7881
X6.11Y-5.8866
X6.11Y-5.985
X6.5739Y-4.7243
X6.5866Y-7.1457
X6.5966Y-7.5107
X6.5966Y-7.9007
X6.5966Y-8.3357
X6.6724Y-4.7243
X6.685Y-7.1457
X6.695Y-7.5107
X6.695Y-7.9007
X6.695Y-8.3357
X6.7708Y-4.7243
X6.7834Y-7.1457
X6.7934Y-7.5107
X6.7934Y-7.9007
X6.7934Y-8.3357
X6.8692Y-4.7243
X6.9676Y-4.7243
X7.0661Y-4.7243
T6
X1.4637Y-7.8092
X1.4637Y-7.9076
X1.4637Y-8.2292
X1.4637Y-8.3276
X1.4687Y-7.4092
X1.4687Y-7.5076
X1.49Y-2.97
X1.59Y-2.97
X1.69Y-2.97
X2.13Y-2.94
X2.23Y-2.94
X2.33Y-2.94
X2.76Y-2.98
X2.86Y-2.98
X2.9Y-8.34
X2.9016Y-7.95
X2.9108Y-7.5407
X2.96Y-2.98
X2.9984Y-8.34
X3.0Y-7.95
X3.0092Y-7.5407
X3.39Y-2.95
X3.49Y-2.95
X3.5008Y-7.5407
X3.5008Y-7.9507
X3.5016Y-8.34
X3.59Y-2.95
X3.5992Y-7.5407
X3.5992Y-7.9507
X3.6Y-8.34
X4.03Y-2.96
X4.0516Y-7.54
X4.0516Y-7.95
X4.0516Y-8.33
X4.13Y-2.96
X4.15Y-7.54
X4.15Y-7.95
X4.15Y-8.33
X4.23Y-2.96
X4.62Y-2.96
X4.6516Y-8.33
X4.6524Y-7.9393
X4.6616Y-7.54
X4.72Y-2.96
X4.75Y-8.33
X4.7508Y-7.9393
X4.76Y-7.54
X4.82Y-2.96
X5.2308Y-7.5507
X5.2308Y-7.9507
X5.2308Y-8.3407
X5.3292Y-7.5507
X5.3292Y-7.9507
X5.3292Y-8.3407
X5.8308Y-7.5507
X5.8308Y-7.9507
X5.8308Y-8.3407
X5.9292Y-7.5507
X5.9292Y-7.9507
X5.9292Y-8.3407
X7.195Y-1.93
X7.205Y-2.32
X7.205Y-2.71
X7.2934Y-1.93
X7.3034Y-2.32
X7.3034Y-2.71
X7.56Y-3.55
X7.56Y-3.65
X7.56Y-3.75
X7.56Y-3.85
X7.56Y-3.95
X7.56Y-4.05
X7.815Y-1.93
X7.815Y-2.32
X7.815Y-2.71
X7.9134Y-1.93
X7.9134Y-2.32
X7.9134Y-2.71
X8.025Y-3.545
X8.025Y-3.645
X8.025Y-3.745
X8.025Y-3.845
X8.025Y-3.945
X8.025Y-4.045
X8.3058Y-2.7093
X8.3158Y-2.3193
X8.3258Y-1.9293
X8.4042Y-2.7093
X8.4142Y-2.3193
X8.4242Y-1.9293
X8.9558Y-1.9293
X8.9558Y-2.32
X8.9558Y-2.7093
X9.0542Y-1.9293
X9.0542Y-2.32
X9.0542Y-2.7093
X9.2657Y-3.5458
X9.2657Y-3.6442
X9.2657Y-3.9658
X9.2657Y-4.0642
X9.2657Y-4.3858
X9.2657Y-4.4842
X9.2657Y-4.7858
X9.2657Y-4.8842
X9.2657Y-5.1958
X9.2657Y-5.2942
X9.2657Y-5.6058
X9.2657Y-5.7042
X9.535Y-1.94
X9.535Y-2.33
X9.535Y-2.72
X9.6334Y-1.94
X9.6334Y-2.33
X9.6334Y-2.72
X10.1942Y-1.9307
X10.1942Y-2.32
X10.1942Y-2.7207
X10.2926Y-1.9307
X10.2926Y-2.32
X10.2926Y-2.7207
X10.315Y-4.475
X10.315Y-4.5734
X10.3157Y-3.4658
X10.3157Y-3.5642
X10.3157Y-3.9758
X10.3157Y-4.0742
X10.3157Y-4.9758
X10.3157Y-5.0742
X10.325Y-5.475
X10.325Y-5.5734
X10.3257Y-5.9358
X10.3257Y-6.0342
T7
X1.0Y-1.5
X1.0Y-8.6
X5.708Y-6.698
X5.836Y-4.754
X6.948Y-3.268
X10.71Y-1.5
X10.712Y-8.598
T0
M30
