%TF.GenerationSoftware,KiCad,Pcbnew,(6.0.7-1)-1*%
%TF.CreationDate,2022-12-15T20:56:21+05:30*%
%TF.ProjectId,BatteryCircuit,42617474-6572-4794-9369-72637569742e,rev?*%
%TF.SameCoordinates,Original*%
%TF.FileFunction,Drillmap*%
%TF.FilePolarity,Positive*%
%FSLAX45Y45*%
G04 Gerber Fmt 4.5, Leading zero omitted, Abs format (unit mm)*
G04 Created by KiCad (PCBNEW (6.0.7-1)-1) date 2022-12-15 20:56:21*
%MOMM*%
%LPD*%
G01*
G04 APERTURE LIST*
%ADD10C,0.100000*%
%ADD11C,0.150000*%
%ADD12C,0.200000*%
G04 APERTURE END LIST*
D10*
X2413000Y-3302000D02*
X27330400Y-3302000D01*
D11*
X2032000Y-21971000D02*
G75*
G03*
X2413000Y-22352000I381000J0D01*
G01*
D10*
X27330400Y-22352000D02*
X2413000Y-22352000D01*
X27711400Y-3683000D02*
X27711400Y-21971000D01*
X2032000Y-21971000D02*
X2032000Y-3683000D01*
D11*
X2413000Y-3302000D02*
G75*
G03*
X2032000Y-3683000I0J-381000D01*
G01*
X27711400Y-3683000D02*
G75*
G03*
X27330400Y-3302000I-381000J0D01*
G01*
X27330400Y-22352000D02*
G75*
G03*
X27711400Y-21971000I0J381000D01*
G01*
D12*
X2282119Y-22669976D02*
X2282119Y-22469976D01*
X2329738Y-22469976D01*
X2358310Y-22479500D01*
X2377357Y-22498548D01*
X2386881Y-22517595D01*
X2396405Y-22555690D01*
X2396405Y-22584262D01*
X2386881Y-22622357D01*
X2377357Y-22641405D01*
X2358310Y-22660452D01*
X2329738Y-22669976D01*
X2282119Y-22669976D01*
X2482119Y-22669976D02*
X2482119Y-22536643D01*
X2482119Y-22574738D02*
X2491643Y-22555690D01*
X2501167Y-22546167D01*
X2520214Y-22536643D01*
X2539262Y-22536643D01*
X2605929Y-22669976D02*
X2605929Y-22536643D01*
X2605929Y-22469976D02*
X2596405Y-22479500D01*
X2605929Y-22489024D01*
X2615452Y-22479500D01*
X2605929Y-22469976D01*
X2605929Y-22489024D01*
X2729738Y-22669976D02*
X2710690Y-22660452D01*
X2701167Y-22641405D01*
X2701167Y-22469976D01*
X2834500Y-22669976D02*
X2815452Y-22660452D01*
X2805928Y-22641405D01*
X2805928Y-22469976D01*
X3063071Y-22669976D02*
X3063071Y-22469976D01*
X3129738Y-22612833D01*
X3196405Y-22469976D01*
X3196405Y-22669976D01*
X3377357Y-22669976D02*
X3377357Y-22565214D01*
X3367833Y-22546167D01*
X3348786Y-22536643D01*
X3310690Y-22536643D01*
X3291643Y-22546167D01*
X3377357Y-22660452D02*
X3358309Y-22669976D01*
X3310690Y-22669976D01*
X3291643Y-22660452D01*
X3282119Y-22641405D01*
X3282119Y-22622357D01*
X3291643Y-22603309D01*
X3310690Y-22593786D01*
X3358309Y-22593786D01*
X3377357Y-22584262D01*
X3472595Y-22536643D02*
X3472595Y-22736643D01*
X3472595Y-22546167D02*
X3491643Y-22536643D01*
X3529738Y-22536643D01*
X3548786Y-22546167D01*
X3558309Y-22555690D01*
X3567833Y-22574738D01*
X3567833Y-22631881D01*
X3558309Y-22650928D01*
X3548786Y-22660452D01*
X3529738Y-22669976D01*
X3491643Y-22669976D01*
X3472595Y-22660452D01*
X3653548Y-22650928D02*
X3663071Y-22660452D01*
X3653548Y-22669976D01*
X3644024Y-22660452D01*
X3653548Y-22650928D01*
X3653548Y-22669976D01*
X3653548Y-22546167D02*
X3663071Y-22555690D01*
X3653548Y-22565214D01*
X3644024Y-22555690D01*
X3653548Y-22546167D01*
X3653548Y-22565214D01*
M02*
